<?xml version="1.0" encoding="UTF-8" standalone="no"?>
<!DOCTYPE svg PUBLIC "-//W3C//DTD SVG 1.1//EN" "http://www.w3.org/Graphics/SVG/1.1/DTD/svg11.dtd">
<svg width="100%" height="100%" viewBox="0 0 1080 1080" version="1.1" xmlns="http://www.w3.org/2000/svg" xmlns:xlink="http://www.w3.org/1999/xlink" xml:space="preserve" style="fill-rule:evenodd;clip-rule:evenodd;stroke-linejoin:round;stroke-miterlimit:2;">
    <g transform="matrix(16.5917,0,0,-16.5917,6.81663,1596.05)">
        <path d="M24.3,50.7C24.1,50.7 23.9,50.7 23.7,50.6C15.7,49.1 8.3,44.9 2.9,38.8C1.6,37.4 1.8,35.2 3.2,33.9C4.6,32.6 6.8,32.8 8.1,34.2C12.5,39.2 18.5,42.6 25,43.8C26.9,44.2 28.1,46 27.8,47.8C27.3,49.6 25.9,50.7 24.3,50.7Z" style="fill:rgb(149,149,149);fill-rule:nonzero;"/>
    </g>
    <g transform="matrix(16.5917,0,0,16.5917,6.81663,23.663)">
        <path d="M24.3,36.5C22.4,36.5 20.8,35 20.8,33L20.8,4C20.8,2.1 22.3,0.5 24.3,0.5C26.2,0.5 27.8,2 27.8,4L27.8,33C27.7,34.9 26.2,36.5 24.3,36.5Z" style="fill:rgb(149,149,149);fill-rule:nonzero;"/>
    </g>
    <g transform="matrix(16.5917,0,0,16.5917,6.81663,23.663)">
        <path d="M11,19.7C11,22.2 9,24.2 6.5,24.2C4,24.2 2,22.2 2,19.7C2,17.2 4,15.2 6.5,15.2C9,15.2 11,17.2 11,19.7Z" style="fill:rgb(149,149,149);fill-rule:nonzero;"/>
    </g>
    <path d="M616.944,851.067C609.35,843.046 610.754,830.509 610.754,818.513L610.754,90.03C610.754,58.506 635.642,31.959 668.825,31.959C700.349,31.959 726.896,56.846 726.896,90.03L726.896,767.145C841.639,798.249 946.505,863.001 1025.55,952.288C1047.12,975.516 1043.8,1012.02 1020.57,1033.59C997.34,1055.16 960.839,1051.84 939.269,1028.61C866.266,945.651 766.716,889.24 658.87,869.33C639.457,865.243 624.963,859.537 616.944,851.067Z" style="fill:rgb(46,182,199);fill-rule:nonzero;"/>
    <g transform="matrix(16.5917,0,0,16.5917,6.81663,23.663)">
        <path d="M62.2,20.1C62.2,22.6 60.2,24.6 57.7,24.6C55.2,24.6 53.2,22.6 53.2,20.1C53.2,17.6 55.2,15.6 57.7,15.6C60.2,15.6 62.2,17.7 62.2,20.1Z" style="fill:rgb(46,182,199);fill-rule:nonzero;"/>
    </g>
    <g transform="matrix(0.297709,0,0,0.297709,38.5772,-433.141)">
        <path d="M3109.01,3084.39C3109.01,3084.39 3304.06,3508.71 3304.06,3616.37C3304.06,3724.02 3216.66,3811.42 3109.01,3811.42C3001.35,3811.42 2913.95,3724.02 2913.95,3616.37C2913.95,3508.71 3109.01,3084.39 3109.01,3084.39Z" style="fill:rgb(46,182,199);"/>
    </g>
</svg>
